<svg xmlns="http://www.w3.org/2000/svg" xmlns:xlink="http://www.w3.org/1999/xlink" viewBox="0 0 139.71 119.33"><defs><style>.cls-1{fill:url(#Degradado_sin_nombre_2);}.cls-2{fill:url(#Degradado_sin_nombre_41);}.cls-3{fill:url(#Degradado_sin_nombre_31);}.cls-4{fill:url(#Degradado_sin_nombre_33);}.cls-5{fill:url(#Degradado_sin_nombre_2-2);}.cls-6{fill:url(#Degradado_sin_nombre_2-3);}.cls-7{fill:url(#Degradado_sin_nombre_2-4);}</style><linearGradient id="Degradado_sin_nombre_2" x1="69.86" y1="100.12" x2="69.86" y2="112" gradientUnits="userSpaceOnUse"><stop offset="0" stop-color="#c4d6ff"/><stop offset="1" stop-color="#fff"/></linearGradient><linearGradient id="Degradado_sin_nombre_41" x1="108.58" y1="-17.5" x2="108.58" y2="99.04" gradientUnits="userSpaceOnUse"><stop offset="0" stop-color="#0900fb"/><stop offset="1" stop-color="#00c3ff"/></linearGradient><linearGradient id="Degradado_sin_nombre_31" x1="89.58" y1="-17.5" x2="89.58" y2="99.04" gradientUnits="userSpaceOnUse"><stop offset="0" stop-color="#f7a000"/><stop offset="1" stop-color="#ffe115"/></linearGradient><linearGradient id="Degradado_sin_nombre_33" x1="70.58" y1="-17.5" x2="70.58" y2="99.04" gradientUnits="userSpaceOnUse"><stop offset="0" stop-color="#dc003e"/><stop offset="1" stop-color="#ff6d98"/></linearGradient><linearGradient id="Degradado_sin_nombre_2-2" x1="54.29" y1="5.5" x2="54.29" y2="110.88" xlink:href="#Degradado_sin_nombre_2"/><linearGradient id="Degradado_sin_nombre_2-3" x1="66.08" y1="5.5" x2="66.08" y2="110.89" xlink:href="#Degradado_sin_nombre_2"/><linearGradient id="Degradado_sin_nombre_2-4" x1="128.9" y1="5.5" x2="128.9" y2="110.88" xlink:href="#Degradado_sin_nombre_2"/></defs><g id="Capa_2" data-name="Capa 2"><g id="OBJECTS"><polygon class="cls-1" points="87.3 111.79 87.3 96.49 79.75 96.49 79.75 111.79 59.96 111.79 59.96 96.49 52.42 96.49 52.42 111.79 38.86 111.79 38.86 119.33 100.86 119.33 100.86 111.79 87.3 111.79"/><rect class="cls-2" x="104.81" width="7.55" height="79.75"/><rect class="cls-3" x="85.81" y="35.5" width="7.55" height="44.25"/><rect class="cls-4" x="66.81" y="51.46" width="7.55" height="28.29"/><path class="cls-5" d="M108.58,100.27H17.68A17.71,17.71,0,0,1,0,82.58V34.45A17.71,17.71,0,0,1,17.68,16.76v7.55A10.14,10.14,0,0,0,7.55,34.45V82.58A10.14,10.14,0,0,0,17.68,92.72h90.9Z"/><rect class="cls-6" x="33.08" y="16.76" width="66" height="7.55"/><path class="cls-7" d="M122,16.76h-4v7.55h4a10.15,10.15,0,0,1,10.14,10.14V82.58A10.15,10.15,0,0,1,122,92.72v7.55a17.71,17.71,0,0,0,17.68-17.69V34.45A17.71,17.71,0,0,0,122,16.76Z"/></g></g></svg>