<svg xmlns="http://www.w3.org/2000/svg" xmlns:xlink="http://www.w3.org/1999/xlink" viewBox="0 0 142.3 121.54"><defs><style>.cls-1{fill:#220f60;}.cls-2{fill:url(#Degradado_sin_nombre_41);}.cls-3{fill:url(#Degradado_sin_nombre_31);}.cls-4{fill:url(#Degradado_sin_nombre_33);}</style><linearGradient id="Degradado_sin_nombre_41" x1="110.59" y1="-17.82" x2="110.59" y2="100.87" gradientUnits="userSpaceOnUse"><stop offset="0" stop-color="#0900fb"/><stop offset="1" stop-color="#00c3ff"/></linearGradient><linearGradient id="Degradado_sin_nombre_31" x1="91.24" y1="-17.82" x2="91.24" y2="100.87" gradientUnits="userSpaceOnUse"><stop offset="0" stop-color="#f7a000"/><stop offset="1" stop-color="#ffe115"/></linearGradient><linearGradient id="Degradado_sin_nombre_33" x1="71.89" y1="-17.82" x2="71.89" y2="100.87" gradientUnits="userSpaceOnUse"><stop offset="0" stop-color="#dc003e"/><stop offset="1" stop-color="#ff6d98"/></linearGradient></defs><g id="Capa_2" data-name="Capa 2"><g id="OBJECTS"><polygon class="cls-1" points="88.91 113.86 88.91 98.28 81.23 98.28 81.23 113.86 61.07 113.86 61.07 98.28 53.39 98.28 53.39 113.86 39.58 113.86 39.58 121.55 102.72 121.55 102.72 113.86 88.91 113.86"/><rect class="cls-2" x="106.75" width="7.69" height="81.23"/><rect class="cls-3" x="87.4" y="36.16" width="7.69" height="45.07"/><rect class="cls-4" x="68.05" y="52.42" width="7.69" height="28.81"/><path class="cls-1" d="M110.59,102.12H18a18,18,0,0,1-18-18v-49a18,18,0,0,1,18-18v7.69A10.33,10.33,0,0,0,7.69,35.08v49A10.33,10.33,0,0,0,18,94.44h92.58Z"/><rect class="cls-1" x="33.7" y="17.07" width="67.22" height="7.69"/><path class="cls-1" d="M124.29,17.07h-4v7.69h4a10.33,10.33,0,0,1,10.32,10.32v49a10.33,10.33,0,0,1-10.32,10.33v7.68a18,18,0,0,0,18-18v-49A18,18,0,0,0,124.29,17.07Z"/></g></g></svg>